<svg version="1.1" xmlns="http://www.w3.org/2000/svg" viewBox="0 0 1597.7564379104174 862.1840277777779" width="1597.7564379104174" height="862.1840277777779">
  <!-- svg-source:excalidraw -->
  
  <defs>
    <style>
      @font-face {
        font-family: "Virgil";
        src: url("libs//dist/excalidraw-assets/Virgil.woff2");
      }
      @font-face {
        font-family: "Cascadia";
        src: url("libs//dist/excalidraw-assets/Cascadia.woff2");
      }
    </style>
  </defs>
  <rect x="0" y="0" width="1597.7564379104174" height="862.1840277777779" fill="#ffffff"></rect><g stroke-linecap="round" transform="translate(379.63708455658195 320.4336806493608) rotate(0 328.2094184027778 63.71679687500006)"><path d="M1.17 -0.11 L654.59 -0.2 L658.36 126.94 L-1.63 128.16" stroke="none" stroke-width="0" fill="#fab005"></path><path d="M-0.24 0.11 C151.02 0.92, 303.1 0.3, 657.18 -0.1 M-0.25 0.3 C258.82 1.81, 517.51 1.47, 656.74 -0.23 M655.72 -0.94 C658.1 29.54, 658.58 64.54, 658.13 128.14 M655.7 0.3 C658.43 41.59, 658.08 80.79, 655.51 128.19 M656.95 127.53 C461.67 129.54, 267.13 130.01, 0.14 127.3 M656.32 127.57 C425.58 128.43, 194.35 128.14, 0.12 127.12 M1.73 127.22 C-0.13 87.99, 0.49 49.69, 1.56 -0.59 M0.09 127.76 C0.3 95.79, 0.06 65.05, 0.13 -0.27" stroke="#000000" stroke-width="1" fill="none"></path></g><g stroke-linecap="round"><g transform="translate(772.5121562219102 160.09770299716288) rotate(0 -1.3976465723836782 79.25658959441084)"><path d="M-1.02 -0.79 C-1.48 25.45, -2.5 131.51, -2.86 158.31 M0.65 1.41 C0.09 27.69, -2.72 133.21, -3.45 159.3" stroke="#000000" stroke-width="1" fill="none"></path></g><g transform="translate(772.5121562219102 160.09770299716288) rotate(0 -1.3976465723836782 79.25658959441084)"><path d="M-14.26 131.98 C-11.66 139.97, -6.11 146.55, -4 157.93 M-13.9 131.48 C-10.34 137.27, -9.16 143.22, -3.21 159.94" stroke="#000000" stroke-width="1" fill="none"></path></g><g transform="translate(772.5121562219102 160.09770299716288) rotate(0 -1.3976465723836782 79.25658959441084)"><path d="M6.26 132.53 C2.82 140.19, 2.33 146.6, -4 157.93 M6.61 132.04 C5.57 137.73, 2.14 143.57, -3.21 159.94" stroke="#000000" stroke-width="1" fill="none"></path></g></g><g stroke-linecap="round" transform="translate(373.0512545379943 39.066018969385084) rotate(0 333.89062500000006 59.04443359374998)"><path d="M0.92 0.19 L668 1.12 L665.79 117.92 L-0.39 118.19" stroke="none" stroke-width="0" fill="#40c057"></path><path d="M0.47 -0.04 C193.1 1.93, 386.67 1.25, 667.34 0.65 M-0.37 0.16 C190.44 -1.81, 380.28 -1.58, 667.98 0.26 M668.6 0.31 C668.02 45.6, 667.39 94.47, 667.21 119.33 M667.39 0.82 C666.24 44.45, 666.22 87.43, 666.93 118.3 M668.06 118.3 C428.68 118.96, 188.95 118.02, -0.11 118.2 M667.62 118.24 C523.15 119.57, 379.21 119.23, -0.34 118.4 M1.97 119.21 C1.79 73.24, 0.83 23.94, -1.16 1.07 M-0.87 117.75 C1.87 73.7, 1.83 30.13, 0.61 0.13" stroke="#000000" stroke-width="1" fill="none"></path></g><g transform="translate(931.415172354201 820.2994791666669) rotate(0 51 11.5)"><text x="0" y="18" font-family="Helvetica, Segoe UI Emoji" font-size="20px" fill="#000000" text-anchor="start" style="white-space: pre;" direction="ltr">falsetesting</text></g><g stroke-linecap="round"><g transform="translate(632.6705969969266 318.5344680997575) rotate(0 -0.8604867575152753 -76.43622032522075)"><path d="M0.03 -0.53 C-0.05 -25.83, -0.77 -127.42, -1.03 -153.01 M-1.42 1.81 C-1.56 -23.72, -1.6 -128.9, -1.75 -154.68" stroke="#000000" stroke-width="1" fill="none"></path></g><g transform="translate(632.6705969969266 318.5344680997575) rotate(0 -0.8604867575152753 -76.43622032522075)"><path d="M7.71 -125.79 C7.72 -133.7, 3.34 -142.08, -2.93 -153.84 M8.33 -126.16 C5.66 -137.29, 0.97 -148.43, -1.2 -153.73" stroke="#000000" stroke-width="1" fill="none"></path></g><g transform="translate(632.6705969969266 318.5344680997575) rotate(0 -0.8604867575152753 -76.43622032522075)"><path d="M-12.81 -125.73 C-7.64 -133.66, -6.87 -142.05, -2.93 -153.84 M-12.19 -126.1 C-7.05 -137.22, -3.93 -148.39, -1.2 -153.73" stroke="#000000" stroke-width="1" fill="none"></path></g></g><g stroke-linecap="round" transform="translate(713.402802562535 615.2528211805558) rotate(0 159.50065104166646 96.43598090277786)"><path d="M1.26 1.44 L318.35 1.79 L319.8 191.8 L0.14 192.17" stroke="none" stroke-width="0" fill="#e64980"></path><path d="M0.2 0.47 C114.28 0.03, 229.26 -1.77, 319.51 0.87 M0.11 -0.24 C82.61 -1.99, 166.3 -2.03, 318.92 -0.56 M320.38 1.88 C319.23 49.42, 321.74 93.97, 317.61 191.11 M318.87 0.17 C319.88 73.59, 318.94 149.61, 319.02 193.11 M320.28 191.85 C202.13 193.44, 87.38 193.28, 0.21 193.84 M318.33 192.79 C210.59 192.88, 102.31 193.38, 0.66 192.68 M1.93 191.27 C0.78 143.48, 1.85 93.63, 0.32 -1.43 M-0.69 191.92 C-0.47 130.9, 0.65 67.88, -0.77 0.8" stroke="#000000" stroke-width="1" fill="none"></path></g><g transform="translate(377.5974640208678 10) rotate(0 36.99999999999997 11.5)"><text x="0" y="18" font-family="Helvetica, Segoe UI Emoji" font-size="20px" fill="#000000" text-anchor="start" style="white-space: pre;" direction="ltr">frontend</text></g><g transform="translate(386.9820126319791 288.1640625) rotate(0 38.49999999999997 11.5)"><text x="0" y="18" font-family="Helvetica, Segoe UI Emoji" font-size="20px" fill="#000000" text-anchor="start" style="white-space: pre;" direction="ltr">backend</text></g><g stroke-linecap="round" transform="translate(381.5321428403123 616.6113281250001) rotate(0 156.06966145833331 97.24978298611117)"><path d="M-1.46 -0.79 L311.32 1.43 L311.09 194.8 L1.38 195.29" stroke="none" stroke-width="0" fill="#be4bdb"></path><path d="M0.19 -0.59 C64.67 0.57, 130.78 -0.85, 311.32 0.3 M-0.42 0.46 C101.89 -1.08, 202.19 -0.85, 312.49 -0.63 M313.69 -1.33 C312.15 44.18, 308.42 88.44, 310.73 194.14 M312 0.21 C312.5 56.35, 312.49 112.6, 312.39 194.64 M311.27 193.26 C208.47 196.31, 103.19 196.68, 1.12 194.72 M312.24 194.23 C228.94 193.22, 145.54 194.31, -0.01 194.99 M1.34 192.61 C-0.25 116.07, 2.86 41.55, -1.58 -0.26 M-0.42 195.17 C-0.98 133.16, -0.35 71.03, 0.51 0.91" stroke="#000000" stroke-width="1" fill="none"></path></g><g transform="translate(381.97940846531213 829.1840277777779) rotate(0 40.99999999999997 11.5)"><text x="0" y="18" font-family="Helvetica, Segoe UI Emoji" font-size="20px" fill="#000000" text-anchor="start" style="white-space: pre;" direction="ltr">consultor</text></g><g stroke-linecap="round"><g transform="translate(515.8178156491722 450.0503472222222) rotate(0 -1.1613283491863058 82.3878647520616)"><path d="M-0.61 -0.35 C-0.89 27.18, -2.34 138.85, -2.46 166.35 M1.27 -1.57 C0.88 26.12, -3.09 136.8, -3.59 164.64" stroke="#000000" stroke-width="1" fill="none"></path></g><g transform="translate(515.8178156491722 450.0503472222222) rotate(0 -1.1613283491863058 82.3878647520616)"><path d="M-13.64 135.61 C-9.27 144.1, -9.9 150.81, -4.11 164.13 M-13.5 136.59 C-10.32 143.62, -7.77 152.07, -4.49 164.79" stroke="#000000" stroke-width="1" fill="none"></path></g><g transform="translate(515.8178156491722 450.0503472222222) rotate(0 -1.1613283491863058 82.3878647520616)"><path d="M6.88 136.18 C6.47 144.44, 1.07 151.02, -4.11 164.13 M7.01 137.17 C4.67 144.08, 1.71 152.38, -4.49 164.79" stroke="#000000" stroke-width="1" fill="none"></path></g></g><g stroke-linecap="round"><g transform="translate(604.1252128958042 613.2751736111112) rotate(0 0.7281299885577255 -81.37223930735246)"><path d="M0.88 -0.64 C1.31 -27.75, 1.72 -135.74, 1.52 -162.85 M-0.12 1.63 C0.33 -25.76, 0.68 -136.56, 1.04 -164.38" stroke="#000000" stroke-width="1" fill="none"></path></g><g transform="translate(604.1252128958042 613.2751736111112) rotate(0 0.7281299885577255 -81.37223930735246)"><path d="M10.01 -134.64 C10.91 -143.59, 8.08 -149.37, 1.72 -162.7 M10.14 -136.31 C7.46 -144.11, 5.2 -154.77, 0.48 -164.45" stroke="#000000" stroke-width="1" fill="none"></path></g><g transform="translate(604.1252128958042 613.2751736111112) rotate(0 0.7281299885577255 -81.37223930735246)"><path d="M-10.51 -134.8 C-5.3 -143.86, -3.8 -149.61, 1.72 -162.7 M-10.38 -136.47 C-6.62 -144.27, -2.44 -154.89, 0.48 -164.45" stroke="#000000" stroke-width="1" fill="none"></path></g></g><g stroke-linecap="round"><g transform="translate(810.912981137927 448.8672743993609) rotate(0 -0.08769176219402652 81.11946189627088)"><path d="M0.74 -0.91 C0.49 26.25, 0 134.67, -0.59 162.01 M-0.33 1.22 C-0.71 28.61, -0.89 136.53, -0.92 163.15" stroke="#000000" stroke-width="1" fill="none"></path></g><g transform="translate(810.912981137927 448.8672743993609) rotate(0 -0.08769176219402652 81.11946189627088)"><path d="M-12.65 136.91 C-8.79 143.73, -3.1 154.62, 0 163.61 M-10.79 135.71 C-6.76 144.87, -4.76 154.59, -1.03 162.91" stroke="#000000" stroke-width="1" fill="none"></path></g><g transform="translate(810.912981137927 448.8672743993609) rotate(0 -0.08769176219402652 81.11946189627088)"><path d="M7.87 136.95 C4.03 143.88, 2.01 154.75, 0 163.61 M9.74 135.74 C6.75 144.73, 1.72 154.44, -1.03 162.91" stroke="#000000" stroke-width="1" fill="none"></path></g></g><g stroke-linecap="round"><g transform="translate(894.7937616993736 615.3947838331262) rotate(0 -0.5758707255347986 -80.67330147176978)"><path d="M-0.96 0.94 C-1.3 -26.02, -1.12 -135.33, -1.11 -162.29 M0.74 0.39 C0.18 -26.35, -1.55 -133.78, -1.89 -160.94" stroke="#000000" stroke-width="1" fill="none"></path></g><g transform="translate(894.7937616993736 615.3947838331262) rotate(0 -0.5758707255347986 -80.67330147176978)"><path d="M10.35 -132.39 C4.26 -142.7, 2.7 -154.47, -1.32 -161.27 M8.89 -133.66 C4.02 -143.97, -0.62 -155.5, -1.26 -160.35" stroke="#000000" stroke-width="1" fill="none"></path></g><g transform="translate(894.7937616993736 615.3947838331262) rotate(0 -0.5758707255347986 -80.67330147176978)"><path d="M-10.17 -132.09 C-8.47 -142.35, -2.25 -154.24, -1.32 -161.27 M-11.63 -133.36 C-8.3 -143.82, -4.74 -155.48, -1.26 -160.35" stroke="#000000" stroke-width="1" fill="none"></path></g></g><g stroke-linecap="round" transform="translate(1291.6015872847565 276.938701877124) rotate(0 95.93511284722217 97.24978298611117)"><path d="M1.08 1.48 L192.66 -1.87 L191.64 195.76 L1.11 195.77" stroke="none" stroke-width="0" fill="#868e96"></path><path d="M1.12 -1.75 C39.88 -1.4, 80.93 -0.7, 189.91 -0.85 M-0.21 -0.59 C53.69 -0.23, 107.93 -0.94, 191.57 0.49 M190.18 1.82 C193.72 49.62, 192.69 97.87, 192.75 193.27 M191.05 -0.71 C193.18 47.02, 192.88 92.08, 192.34 195.24 M190.8 194.77 C130.75 195.85, 72.87 197.68, 0.28 196.31 M191.32 194.08 C121 194.08, 51.88 193.48, 0.87 194.48 M1.7 195.95 C0.1 148.26, 3.86 96.66, -1.84 -0.73 M0.78 195.22 C-1.28 116.27, -0.64 39.22, -0.47 0.03" stroke="#000000" stroke-width="1" fill="none"></path></g><g stroke-linecap="round"><g transform="translate(1037.7059709653122 360.6219454799683) rotate(0 126.68501124268437 -0.3407905874002921)"><path d="M-0.36 0.34 C41.72 0.11, 209.25 -0.98, 251.51 -1.02 M1.65 -0.53 C44.18 -0.62, 211.87 0.51, 253.73 0.29" stroke="#000000" stroke-width="1" fill="none"></path></g><g transform="translate(1037.7059709653122 360.6219454799683) rotate(0 126.68501124268437 -0.3407905874002921)"><path d="M226.09 8.96 C230.94 9.65, 239 4.5, 252.35 1.95 M224.78 10 C231.8 6.9, 240.76 4.78, 253.25 -0.64" stroke="#000000" stroke-width="1" fill="none"></path></g><g transform="translate(1037.7059709653122 360.6219454799683) rotate(0 126.68501124268437 -0.3407905874002921)"><path d="M226.12 -11.56 C231.02 -6.39, 239.07 -7.04, 252.35 1.95 M224.81 -10.52 C231.95 -8.3, 240.91 -5.12, 253.25 -0.64" stroke="#000000" stroke-width="1" fill="none"></path></g></g><g stroke-linecap="round"><g transform="translate(1288.6087487430905 399.25318091703156) rotate(0 -125.50481359926528 0.44008466708592664)"><path d="M-0.22 -0.55 C-42 -0.39, -208.12 0.83, -249.83 0.89 M-1.8 1.77 C-43.8 1.59, -209.16 -0.75, -250.78 -0.89" stroke="#000000" stroke-width="1" fill="none"></path></g><g transform="translate(1288.6087487430905 399.25318091703156) rotate(0 -125.50481359926528 0.44008466708592664)"><path d="M-223.42 -10.92 C-231.79 -8.33, -243.95 -5.21, -252.31 -2.74 M-222.46 -10.44 C-228.96 -8.2, -234.36 -7.08, -251.24 -0.47" stroke="#000000" stroke-width="1" fill="none"></path></g><g transform="translate(1288.6087487430905 399.25318091703156) rotate(0 -125.50481359926528 0.44008466708592664)"><path d="M-223.61 9.6 C-231.9 4.67, -243.99 0.28, -252.31 -2.74 M-222.66 10.08 C-229.19 8.15, -234.55 5.1, -251.24 -0.47" stroke="#000000" stroke-width="1" fill="none"></path></g></g><g transform="translate(826.1998945764235 504.3967013888888) rotate(0 25.5 11.5)"><text x="0" y="18" font-family="Helvetica, Segoe UI Emoji" font-size="20px" fill="#000000" text-anchor="start" style="white-space: pre;" direction="ltr">{json}</text></g><g transform="translate(535.2007626319787 504.98697916666663) rotate(0 25.5 11.5)"><text x="0" y="18" font-family="Helvetica, Segoe UI Emoji" font-size="20px" fill="#000000" text-anchor="start" style="white-space: pre;" direction="ltr">{json}</text></g><g transform="translate(1299.0453806875348 242.55642361111114) rotate(0 11.5 11.5)"><text x="0" y="18" font-family="Helvetica, Segoe UI Emoji" font-size="20px" fill="#000000" text-anchor="start" style="white-space: pre;" direction="ltr">db</text></g><g transform="translate(675.6825334653123 224.50520833333331) rotate(0 25.5 11.5)"><text x="0" y="18" font-family="Helvetica, Segoe UI Emoji" font-size="20px" fill="#000000" text-anchor="start" style="white-space: pre;" direction="ltr">{json}</text></g><g stroke-linecap="round"><g transform="translate(10.04104040975679 554.6857638888889) rotate(0 788.8371785454518 -3.5246232317356885)"><path d="M0.93 0.03 C263.71 -0.75, 1314.8 -4.19, 1577.72 -5.26 M-0.04 -1 C262.51 -2.08, 1313.87 -6.34, 1576.9 -7.08" stroke="#000000" stroke-width="1" fill="none"></path></g></g><g stroke-linecap="round" transform="translate(1294.3967261736461 613.5601128472224) rotate(0 95.93511284722217 97.2497829861112)"><path d="M1.84 1.07 L190.65 0.23 L190.52 195.53 L-0.18 195.45" stroke="none" stroke-width="0" fill="#fa5252"></path><path d="M0.94 0.21 C65.96 -0.86, 134.92 -1.93, 192.74 -0.14 M0.21 -0.15 C42.21 2.59, 83.42 1.06, 191.5 0.92 M192.85 -1.2 C194.06 58.17, 192.97 113.1, 191.8 195.86 M191.07 -0.1 C189.66 46.92, 190.87 92.32, 192.34 195.04 M191.27 195.94 C148.44 193.47, 107.33 194.37, -0.87 192.55 M192.82 193.64 C136.6 192.43, 80.09 193.14, 0.48 194.33 M-1.8 194.13 C0.97 131.02, 0.7 68.08, -0.12 1.66 M-0.24 194.61 C-0.11 142.79, 0.65 89.48, -0.81 -0.72" stroke="#000000" stroke-width="1" fill="none"></path></g><g transform="translate(1298.2242001319787 583.2769097222224) rotate(0 11.5 11.5)"><text x="0" y="18" font-family="Helvetica, Segoe UI Emoji" font-size="20px" fill="#000000" text-anchor="start" style="white-space: pre;" direction="ltr">db</text></g><g stroke-linecap="round"><g transform="translate(1030.1755890208678 677.0251736111112) rotate(0 130.4357803487942 -1.742963904556234)"><path d="M-0.75 -0.23 C42.89 -0.83, 218.21 -3.04, 261.62 -3.26 M1.06 -1.39 C44.64 -1.88, 217.69 -1.77, 261.21 -2.1" stroke="#000000" stroke-width="1" fill="none"></path></g><g transform="translate(1030.1755890208678 677.0251736111112) rotate(0 130.4357803487942 -1.742963904556234)"><path d="M232.67 9.95 C239.84 4.02, 250.75 1.82, 261.71 -3.43 M233.18 8.74 C239.78 5.55, 248.31 2.89, 260.87 -2.98" stroke="#000000" stroke-width="1" fill="none"></path></g><g transform="translate(1030.1755890208678 677.0251736111112) rotate(0 130.4357803487942 -1.742963904556234)"><path d="M232.6 -10.57 C239.86 -10.65, 250.78 -7, 261.71 -3.43 M233.12 -11.78 C239.82 -9.42, 248.37 -6.52, 260.87 -2.98" stroke="#000000" stroke-width="1" fill="none"></path></g></g><g stroke-linecap="round"><g transform="translate(1291.2346167986457 725.7361111111112) rotate(0 -128.18161268670826 1.865902580048214)"><path d="M1.04 0.68 C-41.88 1.08, -213.67 2.32, -256.82 2.63 M0.12 -0.01 C-42.95 0.51, -214.25 3.17, -257.4 3.74" stroke="#000000" stroke-width="1" fill="none"></path></g><g transform="translate(1291.2346167986457 725.7361111111112) rotate(0 -128.18161268670826 1.865902580048214)"><path d="M-228.23 -5.77 C-240.65 -3.47, -250.71 -0.14, -255.94 3.61 M-228.46 -7.26 C-237.29 -4.73, -246.49 -1.38, -257.21 3.31" stroke="#000000" stroke-width="1" fill="none"></path></g><g transform="translate(1291.2346167986457 725.7361111111112) rotate(0 -128.18161268670826 1.865902580048214)"><path d="M-227.93 14.75 C-240.49 9.77, -250.65 5.82, -255.94 3.61 M-228.17 13.26 C-236.99 9.84, -246.28 7.25, -257.21 3.31" stroke="#000000" stroke-width="1" fill="none"></path></g></g><g transform="translate(945.1842695764232 117.2612847222223) rotate(0 34.5 11.5)"><text x="0" y="18" font-family="Helvetica, Segoe UI Emoji" font-size="20px" fill="#000000" text-anchor="start" style="white-space: pre;" direction="ltr">REACT</text></g><g transform="translate(943.2667348542014 405.61197916666674) rotate(0 29.5 11.5)"><text x="0" y="18" font-family="Helvetica, Segoe UI Emoji" font-size="20px" fill="#000000" text-anchor="start" style="white-space: pre;" direction="ltr">NODE</text></g><g transform="translate(1356.53062374309 433.5850694444445) rotate(0 56 11.5)"><text x="0" y="18" font-family="Helvetica, Segoe UI Emoji" font-size="20px" fill="#000000" text-anchor="start" style="white-space: pre;" direction="ltr">POSTGRES</text></g><g transform="translate(577.9386098542012 770.9548611111113) rotate(0 42 11.5)"><text x="0" y="18" font-family="Helvetica, Segoe UI Emoji" font-size="20px" fill="#000000" text-anchor="start" style="white-space: pre;" direction="ltr">PYTHON</text></g><g transform="translate(928.7875681875345 768.7977430555558) rotate(0 42 11.5)"><text x="0" y="18" font-family="Helvetica, Segoe UI Emoji" font-size="20px" fill="#000000" text-anchor="start" style="white-space: pre;" direction="ltr">PYTHON</text></g><g transform="translate(1358.4273251319796 766.5668402777779) rotate(0 53.5 11.5)"><text x="0" y="18" font-family="Helvetica, Segoe UI Emoji" font-size="20px" fill="#000000" text-anchor="start" style="white-space: pre;" direction="ltr">MONGODB</text></g><g stroke-linecap="round" transform="translate(1253.4351376319792 597.1032986111115) rotate(0 139.09722222222217 45.709635416666686)"><path d="M138.46 1.3 L279.4 46.41 L141.15 89.59 L1.47 44.5" stroke="none" stroke-width="0" fill="#15aabf" fill-rule="evenodd"></path><path d="M138.69 -1.83 C177.44 11.29, 214.04 25.25, 278.16 46.22 M140.16 -0.44 C172.11 8.6, 202.47 20.77, 277.66 46.99 M278.18 45.69 C239.9 59.19, 202.95 72.34, 138.26 89.68 M278.76 45.11 C240.59 59.5, 201.32 71.96, 139.35 91.54 M139.8 90.07 C95.13 73.48, 47.77 60.62, -0.01 44 M140.43 91.73 C108.59 81.39, 77.47 69.98, 0.91 45.44 M1.65 45.3 C34.1 34.14, 66.52 25.66, 138.56 1.4 M-0.3 46.96 C47.62 31.47, 93.76 16.32, 140.06 -0.03" stroke="#000000" stroke-width="1" fill="none"></path></g><g transform="translate(1344.3769779097565 630.4036458333336) rotate(0 45.5 11.5)"><text x="0" y="18" font-family="Helvetica, Segoe UI Emoji" font-size="20px" fill="#000000" text-anchor="start" style="white-space: pre;" direction="ltr">ATLASDB</text></g><g stroke-linecap="round" transform="translate(1249.50718624309 265.86414930555577) rotate(0 139.09722222222217 45.709635416666686)"><path d="M140.86 0.94 L277.99 47.97 L140.17 91.65 L-1.14 45.09" stroke="none" stroke-width="0" fill="#15aabf" fill-rule="evenodd"></path><path d="M139.71 0.87 C187.62 14.11, 234.6 31.44, 277.75 44.08 M140.75 0.42 C188.63 17.15, 237.41 31.72, 277.65 45.39 M277.02 44.36 C242.45 59.83, 204.32 69.5, 141.86 92.72 M278.27 46.97 C233.8 61.11, 189.51 75.62, 140.75 91.61 M140.97 91.32 C96.04 75.88, 54.11 62.11, -1.7 46.88 M140.93 91.89 C103.35 79.05, 67 67.62, 0.94 45.01 M-0.51 44.48 C30.77 33.26, 61.02 25.88, 138.93 -0.55 M0.8 46.16 C44.81 31.95, 90.34 16.6, 139.24 -0.79" stroke="#000000" stroke-width="1" fill="none"></path></g><g transform="translate(1343.3396515208665 299.46831597222223) rotate(0 47 11.5)"><text x="0" y="18" font-family="Helvetica, Segoe UI Emoji" font-size="20px" fill="#000000" text-anchor="start" style="white-space: pre;" direction="ltr">AWS:RDS</text></g><g stroke-linecap="round" transform="translate(562.1721167986454 49.59678819444461) rotate(0 139.09722222222217 45.709635416666686)"><path d="M140.16 1.47 L279.91 45.44 L140 90.68 L-1.43 46.61" stroke="none" stroke-width="0" fill="#15aabf" fill-rule="evenodd"></path><path d="M141.21 -1.33 C186.01 16.01, 229.47 32.69, 277.44 47.45 M140.19 -0.53 C189.61 16.11, 241.33 32.78, 278.46 45.98 M278.13 47.78 C246.56 54.92, 213.34 68.84, 141.9 89.57 M278.31 46.04 C226.18 63.74, 174.29 81.27, 139.8 90.52 M138.32 92.59 C103.42 81.73, 68.24 69.42, 0.76 46.98 M140.64 91.72 C90.57 76.93, 41.19 60.05, -0.91 45.72 M1.64 46.86 C40.49 35.33, 77.64 22.55, 139.81 1.64 M-0.21 45.49 C34.44 35.39, 66.32 24.5, 140.88 0.16" stroke="#000000" stroke-width="1" fill="none"></path></g><g transform="translate(654.9889570764219 82.86241319444439) rotate(0 40.5 11.5)"><text x="0" y="18" font-family="Helvetica, Segoe UI Emoji" font-size="20px" fill="#000000" text-anchor="start" style="white-space: pre;" direction="ltr">VERCEL</text></g><g stroke-linecap="round" transform="translate(558.1399987430902 338.5203993055557) rotate(0 139.09722222222217 45.709635416666686)"><path d="M141.22 -1.47 L280.19 47.15 L140.83 91.25 L0.93 47.1" stroke="none" stroke-width="0" fill="#15aabf" fill-rule="evenodd"></path><path d="M138.69 0.91 C174.53 9.7, 210.19 20.74, 276.21 45.34 M139.99 0.34 C180.05 13.53, 217.62 25.65, 278.56 45.55 M279.94 44.78 C234.21 61.07, 186 79.01, 141.16 92.27 M278.75 45.99 C244.67 57.25, 210.18 69.11, 140.2 91.3 M141.42 89.46 C87.47 71.52, 30.72 55.85, 1.76 47.81 M139.27 92.03 C91.53 76.33, 43.27 61.77, -0.04 46.1 M0.03 44.19 C53.41 26.72, 110 9, 141.81 0.41 M0.43 46.93 C53.5 29.51, 105.88 10.92, 140.13 0.56" stroke="#000000" stroke-width="1" fill="none"></path></g><g stroke-linecap="round" transform="translate(394.6981584653123 648.3901909722225) rotate(0 139.09722222222217 45.709635416666686)"><path d="M138.76 -1.97 L279.7 44.96 L139.36 89.68 L1.13 47.24" stroke="none" stroke-width="0" fill="#15aabf" fill-rule="evenodd"></path><path d="M139.7 0.59 C189.14 16.39, 238.29 29.97, 279.04 47.37 M140.77 -0.43 C193.57 18.93, 246.75 36.68, 277.58 46.16 M277.86 44.25 C242.56 59.72, 206.37 70.1, 140.72 89.46 M278.6 45.06 C223.04 63.62, 166.71 82.14, 140.56 91.14 M138.49 92.7 C105.72 80.35, 72.63 72.05, 0.71 45.6 M140.19 91.85 C107.25 80.73, 75.67 70.77, 0.77 45.06 M-0.27 44.82 C53.46 29.18, 104.34 9.04, 140.83 1.11 M0.59 45.8 C53.2 27.75, 109.55 8.79, 140.28 0.29" stroke="#000000" stroke-width="1" fill="none"></path></g><g stroke-linecap="round" transform="translate(740.2450334653121 649.826822916667) rotate(0 139.09722222222217 45.709635416666686)"><path d="M140.13 1.11 L277.64 44.77 L140.27 90.67 L-0.88 47.51" stroke="none" stroke-width="0" fill="#15aabf" fill-rule="evenodd"></path><path d="M140.62 1.53 C174.77 11.71, 213.94 21.17, 276.85 45.02 M140.37 0.47 C175.55 10.9, 209.96 22.82, 278.21 46.69 M278.65 44.51 C236.25 60.43, 190.69 75.55, 139.69 91.83 M278.1 45.42 C242.92 56.09, 206.53 69.14, 140.94 90.96 M140.74 90.55 C107.82 79.7, 71.65 68.86, 1.24 46.39 M140.37 90.94 C99.97 79.64, 57.13 64.64, 0.73 46.45 M-1.03 46.5 C45.88 30.32, 89.46 14.3, 139.49 1.04 M-0.5 46.34 C49.86 30.79, 98.25 13.15, 140.72 0.53" stroke="#000000" stroke-width="1" fill="none"></path></g></svg>